<mxfile host="app.diagrams.net" modified="2023-08-21T13:24:54.680Z" agent="Mozilla/5.0 (Windows NT 10.0; Win64; x64) AppleWebKit/537.36 (KHTML, like Gecko) Chrome/116.0.0.0 Safari/537.36" etag="ebtd2HTRDPSeYs_DJgZx" version="21.6.8" type="github">
  <diagram name="Page-1" id="Zy9pdKKCJtv9zfPSM5fb">
    <mxGraphModel dx="1105" dy="596" grid="1" gridSize="10" guides="1" tooltips="1" connect="1" arrows="1" fold="1" page="1" pageScale="1" pageWidth="850" pageHeight="1100" background="#ffffff" math="0" shadow="0">
      <root>
        <mxCell id="0" />
        <mxCell id="1" parent="0" />
        <mxCell id="b_OgzXLUQYdf2YcKo40H-15" style="edgeStyle=orthogonalEdgeStyle;rounded=0;orthogonalLoop=1;jettySize=auto;html=1;" edge="1" parent="1">
          <mxGeometry relative="1" as="geometry">
            <mxPoint x="210" y="170" as="targetPoint" />
            <mxPoint x="90" y="170.04761904761904" as="sourcePoint" />
          </mxGeometry>
        </mxCell>
        <mxCell id="b_OgzXLUQYdf2YcKo40H-14" value="&lt;font style=&quot;background-color: rgb(0, 0, 0);&quot; color=&quot;#ffffff&quot;&gt;Developer&lt;/font&gt;" style="text;html=1;strokeColor=none;fillColor=none;align=center;verticalAlign=middle;whiteSpace=wrap;rounded=0;fontSize=15;" vertex="1" parent="1">
          <mxGeometry x="10" y="90" width="110" height="30" as="geometry" />
        </mxCell>
        <mxCell id="b_OgzXLUQYdf2YcKo40H-20" value="" style="verticalLabelPosition=bottom;verticalAlign=top;html=1;shape=mxgraph.flowchart.on-page_reference;fillColor=#f8cecc;strokeColor=#b85450;" vertex="1" parent="1">
          <mxGeometry x="440" y="130" width="90" height="90" as="geometry" />
        </mxCell>
        <mxCell id="b_OgzXLUQYdf2YcKo40H-23" value="" style="dashed=0;outlineConnect=0;html=1;align=center;labelPosition=center;verticalLabelPosition=bottom;verticalAlign=top;shape=mxgraph.webicons.github;gradientColor=#DFDEDE" vertex="1" parent="1">
          <mxGeometry x="210" y="118.8" width="102.4" height="102.4" as="geometry" />
        </mxCell>
        <mxCell id="b_OgzXLUQYdf2YcKo40H-26" value="" style="edgeStyle=orthogonalEdgeStyle;rounded=0;orthogonalLoop=1;jettySize=auto;html=1;exitX=0.5;exitY=1;exitDx=0;exitDy=0;exitPerimeter=0;entryX=0.524;entryY=0.409;entryDx=0;entryDy=0;entryPerimeter=0;" edge="1" parent="1" target="b_OgzXLUQYdf2YcKo40H-25">
          <mxGeometry relative="1" as="geometry">
            <mxPoint x="55" y="165" as="sourcePoint" />
            <mxPoint x="56.679999999999836" y="162.72000000000003" as="targetPoint" />
          </mxGeometry>
        </mxCell>
        <mxCell id="b_OgzXLUQYdf2YcKo40H-25" value="" style="sketch=0;pointerEvents=1;shadow=0;dashed=0;html=1;strokeColor=none;fillColor=#005F4B;labelPosition=center;verticalLabelPosition=bottom;verticalAlign=top;align=center;outlineConnect=0;shape=mxgraph.veeam2.user;" vertex="1" parent="1">
          <mxGeometry x="20" y="130" width="70" height="80" as="geometry" />
        </mxCell>
        <mxCell id="b_OgzXLUQYdf2YcKo40H-28" value="" style="ellipse;whiteSpace=wrap;html=1;aspect=fixed;" vertex="1" parent="1">
          <mxGeometry x="470" y="140" width="40" height="40" as="geometry" />
        </mxCell>
        <mxCell id="b_OgzXLUQYdf2YcKo40H-29" value="" style="endArrow=none;html=1;rounded=0;exitX=0.762;exitY=0.905;exitDx=0;exitDy=0;exitPerimeter=0;fillColor=#bac8d3;strokeColor=#23445d;" edge="1" parent="1" source="b_OgzXLUQYdf2YcKo40H-20">
          <mxGeometry width="50" height="50" relative="1" as="geometry">
            <mxPoint x="380" y="300" as="sourcePoint" />
            <mxPoint x="480" y="220" as="targetPoint" />
            <Array as="points">
              <mxPoint x="510" y="190" />
              <mxPoint x="470" y="190" />
            </Array>
          </mxGeometry>
        </mxCell>
        <mxCell id="b_OgzXLUQYdf2YcKo40H-31" value="" style="endArrow=none;html=1;rounded=0;" edge="1" parent="1">
          <mxGeometry width="50" height="50" relative="1" as="geometry">
            <mxPoint x="480" y="190" as="sourcePoint" />
            <mxPoint x="480" y="180" as="targetPoint" />
            <Array as="points">
              <mxPoint x="480" y="190" />
            </Array>
          </mxGeometry>
        </mxCell>
        <mxCell id="b_OgzXLUQYdf2YcKo40H-32" value="" style="endArrow=none;html=1;rounded=0;entryX=0.5;entryY=1;entryDx=0;entryDy=0;" edge="1" parent="1" target="b_OgzXLUQYdf2YcKo40H-28">
          <mxGeometry width="50" height="50" relative="1" as="geometry">
            <mxPoint x="490" y="190" as="sourcePoint" />
            <mxPoint x="430" y="250" as="targetPoint" />
          </mxGeometry>
        </mxCell>
        <mxCell id="b_OgzXLUQYdf2YcKo40H-33" value="" style="shape=waypoint;sketch=0;fillStyle=solid;size=6;pointerEvents=1;points=[];fillColor=none;resizable=0;rotatable=0;perimeter=centerPerimeter;snapToPoint=1;" vertex="1" parent="1">
          <mxGeometry x="475" y="150" width="20" height="20" as="geometry" />
        </mxCell>
        <mxCell id="b_OgzXLUQYdf2YcKo40H-34" value="" style="shape=waypoint;sketch=0;fillStyle=solid;size=6;pointerEvents=1;points=[];fillColor=none;resizable=0;rotatable=0;perimeter=centerPerimeter;snapToPoint=1;" vertex="1" parent="1">
          <mxGeometry x="490" y="150" width="20" height="20" as="geometry" />
        </mxCell>
        <mxCell id="b_OgzXLUQYdf2YcKo40H-37" style="edgeStyle=orthogonalEdgeStyle;rounded=0;orthogonalLoop=1;jettySize=auto;html=1;exitX=0.5;exitY=1;exitDx=0;exitDy=0;entryX=0.595;entryY=0.749;entryDx=0;entryDy=0;entryPerimeter=0;" edge="1" parent="1">
          <mxGeometry relative="1" as="geometry">
            <mxPoint x="395" y="350" as="sourcePoint" />
            <mxPoint x="395.9499999999998" y="344.98" as="targetPoint" />
          </mxGeometry>
        </mxCell>
        <mxCell id="b_OgzXLUQYdf2YcKo40H-40" value="" style="line;strokeWidth=4;html=1;perimeter=backbonePerimeter;points=[];outlineConnect=0;" vertex="1" parent="1">
          <mxGeometry x="485" y="165" width="10" height="10" as="geometry" />
        </mxCell>
        <mxCell id="b_OgzXLUQYdf2YcKo40H-43" value="&lt;font color=&quot;#ffffff&quot; style=&quot;font-size: 15px; background-color: rgb(0, 0, 0);&quot;&gt;GitHub&lt;/font&gt;" style="text;html=1;strokeColor=none;fillColor=none;align=center;verticalAlign=middle;whiteSpace=wrap;rounded=0;" vertex="1" parent="1">
          <mxGeometry x="221.2" y="85" width="80" height="45" as="geometry" />
        </mxCell>
        <mxCell id="b_OgzXLUQYdf2YcKo40H-45" value="&lt;p style=&quot;line-height: 120%;&quot;&gt;&lt;span style=&quot;font-size: 15px; background-color: rgb(0, 0, 0);&quot;&gt;&lt;font color=&quot;#ffffff&quot;&gt;Jenkins&lt;/font&gt;&lt;/span&gt;&lt;/p&gt;" style="text;html=1;strokeColor=none;fillColor=none;align=center;verticalAlign=middle;whiteSpace=wrap;rounded=0;" vertex="1" parent="1">
          <mxGeometry x="425" y="85" width="100" height="40" as="geometry" />
        </mxCell>
        <mxCell id="b_OgzXLUQYdf2YcKo40H-46" style="edgeStyle=orthogonalEdgeStyle;rounded=0;orthogonalLoop=1;jettySize=auto;html=1;" edge="1" parent="1">
          <mxGeometry relative="1" as="geometry">
            <mxPoint x="432.4" y="168.95" as="targetPoint" />
            <mxPoint x="312.4" y="168.99761904761903" as="sourcePoint" />
          </mxGeometry>
        </mxCell>
        <mxCell id="b_OgzXLUQYdf2YcKo40H-50" value="" style="endArrow=classic;html=1;rounded=0;" edge="1" parent="1">
          <mxGeometry width="50" height="50" relative="1" as="geometry">
            <mxPoint x="530" y="170" as="sourcePoint" />
            <mxPoint x="710" y="170" as="targetPoint" />
          </mxGeometry>
        </mxCell>
        <mxCell id="b_OgzXLUQYdf2YcKo40H-62" style="edgeStyle=orthogonalEdgeStyle;rounded=0;orthogonalLoop=1;jettySize=auto;html=1;" edge="1" parent="1" source="b_OgzXLUQYdf2YcKo40H-59">
          <mxGeometry relative="1" as="geometry">
            <mxPoint x="770" y="360" as="targetPoint" />
            <mxPoint x="770" y="250" as="sourcePoint" />
            <Array as="points">
              <mxPoint x="770" y="296" />
              <mxPoint x="770" y="296" />
            </Array>
          </mxGeometry>
        </mxCell>
        <mxCell id="b_OgzXLUQYdf2YcKo40H-59" value="&lt;span style=&quot;font-size: 26px; background-color: rgb(102, 255, 102);&quot;&gt;&lt;font style=&quot;font-size: 26px;&quot; face=&quot;Georgia&quot;&gt;Ma&lt;/font&gt;&lt;font style=&quot;font-size: 26px;&quot; face=&quot;Times New Roman&quot;&gt;v&lt;/font&gt;&lt;font style=&quot;font-size: 26px;&quot; face=&quot;Georgia&quot;&gt;en&lt;/font&gt;&lt;/span&gt;" style="text;html=1;strokeColor=none;fillColor=none;align=center;verticalAlign=middle;whiteSpace=wrap;rounded=0;" vertex="1" parent="1">
          <mxGeometry x="700" y="117.5" width="140" height="115" as="geometry" />
        </mxCell>
        <mxCell id="b_OgzXLUQYdf2YcKo40H-60" value="&lt;span style=&quot;background-color: rgb(255, 139, 51);&quot;&gt;Apache&lt;/span&gt;" style="text;html=1;strokeColor=none;fillColor=none;align=center;verticalAlign=middle;whiteSpace=wrap;rounded=0;" vertex="1" parent="1">
          <mxGeometry x="750" y="145" width="60" height="30" as="geometry" />
        </mxCell>
        <mxCell id="b_OgzXLUQYdf2YcKo40H-61" value="&lt;font color=&quot;#ffffff&quot; style=&quot;font-size: 15px; background-color: rgb(0, 0, 0);&quot;&gt;Build&lt;/font&gt;" style="text;html=1;strokeColor=none;fillColor=none;align=center;verticalAlign=middle;whiteSpace=wrap;rounded=0;" vertex="1" parent="1">
          <mxGeometry x="740" y="90" width="60" height="30" as="geometry" />
        </mxCell>
        <mxCell id="b_OgzXLUQYdf2YcKo40H-84" style="edgeStyle=orthogonalEdgeStyle;rounded=0;orthogonalLoop=1;jettySize=auto;html=1;" edge="1" parent="1" source="b_OgzXLUQYdf2YcKo40H-68">
          <mxGeometry relative="1" as="geometry">
            <mxPoint x="360" y="385" as="targetPoint" />
          </mxGeometry>
        </mxCell>
        <mxCell id="b_OgzXLUQYdf2YcKo40H-68" value="" style="sketch=0;pointerEvents=1;shadow=0;dashed=0;html=1;strokeColor=none;fillColor=#005F4B;labelPosition=center;verticalLabelPosition=bottom;verticalAlign=top;align=center;outlineConnect=0;shape=mxgraph.veeam2.file;" vertex="1" parent="1">
          <mxGeometry x="475" y="350" width="60" height="70" as="geometry" />
        </mxCell>
        <mxCell id="b_OgzXLUQYdf2YcKo40H-69" value="" style="sketch=0;pointerEvents=1;shadow=0;dashed=0;html=1;strokeColor=none;fillColor=#005F4B;labelPosition=center;verticalLabelPosition=bottom;verticalAlign=top;align=center;outlineConnect=0;shape=mxgraph.veeam2.file;" vertex="1" parent="1">
          <mxGeometry x="490" y="350" width="50" height="60" as="geometry" />
        </mxCell>
        <mxCell id="b_OgzXLUQYdf2YcKo40H-81" style="edgeStyle=orthogonalEdgeStyle;rounded=0;orthogonalLoop=1;jettySize=auto;html=1;" edge="1" parent="1" source="b_OgzXLUQYdf2YcKo40H-73">
          <mxGeometry relative="1" as="geometry">
            <mxPoint x="560" y="385" as="targetPoint" />
          </mxGeometry>
        </mxCell>
        <mxCell id="b_OgzXLUQYdf2YcKo40H-73" value="&lt;span style=&quot;font-size: 23px; background-color: rgb(84, 255, 130);&quot;&gt;SonarQube&lt;/span&gt;" style="text;html=1;align=center;verticalAlign=middle;resizable=0;points=[];autosize=1;strokeColor=none;fillColor=none;" vertex="1" parent="1">
          <mxGeometry x="690" y="365" width="140" height="40" as="geometry" />
        </mxCell>
        <mxCell id="b_OgzXLUQYdf2YcKo40H-80" value="&lt;span style=&quot;font-size: 15px; background-color: rgb(0, 0, 102);&quot;&gt;&lt;font color=&quot;#ffffff&quot;&gt;Test&lt;/font&gt;&lt;/span&gt;" style="text;html=1;align=center;verticalAlign=middle;resizable=0;points=[];autosize=1;strokeColor=none;fillColor=none;" vertex="1" parent="1">
          <mxGeometry x="745" y="450" width="50" height="30" as="geometry" />
        </mxCell>
        <mxCell id="b_OgzXLUQYdf2YcKo40H-83" value="&lt;span style=&quot;font-size: 15px;&quot;&gt;&lt;font style=&quot;background-color: rgb(0, 0, 0);&quot; color=&quot;#ffffff&quot;&gt;Build docker&amp;nbsp;&lt;br&gt;image&lt;/font&gt;&lt;br&gt;&lt;/span&gt;" style="text;html=1;align=center;verticalAlign=middle;resizable=0;points=[];autosize=1;strokeColor=none;fillColor=none;" vertex="1" parent="1">
          <mxGeometry x="445" y="448" width="110" height="50" as="geometry" />
        </mxCell>
        <mxCell id="b_OgzXLUQYdf2YcKo40H-87" value="" style="sketch=0;pointerEvents=1;shadow=0;dashed=0;html=1;strokeColor=none;fillColor=#005F4B;labelPosition=center;verticalLabelPosition=bottom;verticalAlign=top;align=center;outlineConnect=0;shape=mxgraph.veeam2.enterprise_business;" vertex="1" parent="1">
          <mxGeometry x="221.2" y="330" width="60" height="50" as="geometry" />
        </mxCell>
        <mxCell id="b_OgzXLUQYdf2YcKo40H-89" value="" style="endArrow=none;html=1;rounded=0;fillColor=#b0e3e6;strokeColor=#0e8088;" edge="1" parent="1">
          <mxGeometry relative="1" as="geometry">
            <mxPoint x="190" y="380" as="sourcePoint" />
            <mxPoint x="320" y="380" as="targetPoint" />
            <Array as="points" />
          </mxGeometry>
        </mxCell>
        <mxCell id="b_OgzXLUQYdf2YcKo40H-90" value="" style="endArrow=none;html=1;fillColor=#b1ddf0;strokeColor=#10739e;rounded=0;" edge="1" parent="1">
          <mxGeometry relative="1" as="geometry">
            <mxPoint x="190" y="380" as="sourcePoint" />
            <mxPoint x="200" y="380" as="targetPoint" />
            <Array as="points">
              <mxPoint x="210" y="410" />
              <mxPoint x="250" y="430" />
              <mxPoint x="300" y="420" />
              <mxPoint x="340" y="390" />
              <mxPoint x="350" y="370" />
              <mxPoint x="340" y="360" />
              <mxPoint x="320" y="380" />
            </Array>
          </mxGeometry>
        </mxCell>
        <mxCell id="b_OgzXLUQYdf2YcKo40H-94" style="edgeStyle=orthogonalEdgeStyle;rounded=0;orthogonalLoop=1;jettySize=auto;html=1;" edge="1" parent="1">
          <mxGeometry relative="1" as="geometry">
            <mxPoint x="130" y="395" as="targetPoint" />
            <mxPoint x="190" y="395" as="sourcePoint" />
          </mxGeometry>
        </mxCell>
        <mxCell id="b_OgzXLUQYdf2YcKo40H-91" value="" style="shape=waypoint;sketch=0;fillStyle=solid;size=6;pointerEvents=1;points=[];fillColor=#b0e3e6;resizable=0;rotatable=0;perimeter=centerPerimeter;snapToPoint=1;strokeColor=#0e8088;" vertex="1" parent="1">
          <mxGeometry x="210" y="385" width="20" height="20" as="geometry" />
        </mxCell>
        <mxCell id="b_OgzXLUQYdf2YcKo40H-92" value="&lt;font color=&quot;#ffffff&quot;&gt;&lt;span style=&quot;font-size: 15px; background-color: rgb(0, 0, 0);&quot;&gt;DockerHub&lt;/span&gt;&lt;/font&gt;" style="text;html=1;align=center;verticalAlign=middle;resizable=0;points=[];autosize=1;strokeColor=none;fillColor=none;" vertex="1" parent="1">
          <mxGeometry x="196.2" y="450" width="100" height="30" as="geometry" />
        </mxCell>
        <mxCell id="b_OgzXLUQYdf2YcKo40H-95" value="" style="dashed=0;outlineConnect=0;html=1;align=center;labelPosition=center;verticalLabelPosition=bottom;verticalAlign=top;shape=mxgraph.webicons.buffer;gradientColor=#DFDEDE;direction=south;" vertex="1" parent="1">
          <mxGeometry x="30" y="346.90000000000003" width="90" height="96.2" as="geometry" />
        </mxCell>
        <mxCell id="b_OgzXLUQYdf2YcKo40H-96" value="&lt;span style=&quot;font-size: 15px; background-color: rgb(0, 0, 0);&quot;&gt;&lt;font color=&quot;#ffffff&quot;&gt;Instance&lt;/font&gt;&lt;/span&gt;" style="text;html=1;align=center;verticalAlign=middle;resizable=0;points=[];autosize=1;strokeColor=none;fillColor=none;" vertex="1" parent="1">
          <mxGeometry x="25" y="450" width="80" height="30" as="geometry" />
        </mxCell>
      </root>
    </mxGraphModel>
  </diagram>
</mxfile>
